<svg width="28" height="37" viewBox="0 0 28 37" fill="none" xmlns="http://www.w3.org/2000/svg">
<path d="M13.7119 36.9999C13.406 36.7705 13.0744 36.5677 12.798 36.3076C9.23158 32.9515 6.07112 29.2651 3.56669 25.0546C2.09251 22.5762 0.939781 19.9682 0.331777 17.1354C-1.09477 10.4897 2.1694 4.00551 8.38397 1.18779C14.0526 -1.38236 21.0468 0.327792 24.9247 5.26086C27.8629 8.99842 28.6126 13.2041 27.5275 17.7687C26.8153 20.7645 25.4613 23.4862 23.8173 26.0736C21.4088 29.8642 18.4851 33.2337 15.21 36.3096C14.9334 36.5694 14.6014 36.7712 14.2951 37H13.7119V36.9999ZM21.7778 13.6495C21.5867 9.35661 18.0047 6.00484 13.789 6.17385C9.4498 6.34787 6.05304 9.91325 6.22811 14.11C6.40667 18.3893 10.0132 21.7642 14.2173 21.5862C18.5663 21.402 21.9643 17.835 21.7778 13.6495Z" fill="#FF0000"/>
</svg>
